{
    "asset" : {
        "generator" : "Khronos glTF Blender I/O v1.0.5",
        "version" : "2.0"
    },
    "scene" : 0,
    "scenes" : [
        {
            "name" : "Scene",
            "nodes" : [
                0,
                1,
                2
            ]
        }
    ],
    "nodes" : [
        {
            "mesh" : 0,
            "name" : "Cube",
            "scale" : [
                1.590000033378601,
                1.2699999809265137,
                2.25
            ]
        },
        {
            "name" : "Sun",
            "translation" : [
                0.03995108604431152,
                2.6240768432617188,
                -0.21272504329681396
            ]
        },
        {
            "name" : "Camera.001",
            "rotation" : [
                0.07354629039764404,
                0.7781814336776733,
                -0.6167774796485901,
                0.09279075264930725
            ],
            "translation" : [
                1.0299477577209473,
                3.217474937438965,
                -14.617069244384766
            ]
        }
    ],
    "materials" : [
        {
            "doubleSided" : true,
            "name" : "Material.002",
            "pbrMetallicRoughness" : {
                "baseColorFactor" : [
                    0.800000011920929,
                    0.800000011920929,
                    0.800000011920929,
                    1
                ],
                "metallicFactor" : 0,
                "roughnessFactor" : 0.5
            }
        }
    ],
    "meshes" : [
        {
            "name" : "Cube",
            "primitives" : [
                {
                    "attributes" : {
                        "POSITION" : 0,
                        "NORMAL" : 1,
                        "TEXCOORD_0" : 2
                    },
                    "indices" : 3,
                    "material" : 0
                }
            ]
        }
    ],
    "accessors" : [
        {
            "bufferView" : 0,
            "componentType" : 5126,
            "count" : 1198,
            "max" : [
                1,
                1.0257353782653809,
                1.0151041746139526
            ],
            "min" : [
                -1,
                -1.0234696865081787,
                -1.0151041746139526
            ],
            "type" : "VEC3"
        },
        {
            "bufferView" : 1,
            "componentType" : 5126,
            "count" : 1198,
            "type" : "VEC3"
        },
        {
            "bufferView" : 2,
            "componentType" : 5126,
            "count" : 1198,
            "type" : "VEC2"
        },
        {
            "bufferView" : 3,
            "componentType" : 5123,
            "count" : 2580,
            "type" : "SCALAR"
        }
    ],
    "bufferViews" : [
        {
            "buffer" : 0,
            "byteLength" : 14376,
            "byteOffset" : 0
        },
        {
            "buffer" : 0,
            "byteLength" : 14376,
            "byteOffset" : 14376
        },
        {
            "buffer" : 0,
            "byteLength" : 9584,
            "byteOffset" : 28752
        },
        {
            "buffer" : 0,
            "byteLength" : 5160,
            "byteOffset" : 38336
        }
    ],
    "buffers" : [
        {
            "byteLength" : 43496,
            "uri" : "data:application/octet-stream;base64,"
        }
    ]
}
