{
    "asset" : {
        "generator" : "Khronos glTF Blender I/O v1.0.5",
        "version" : "2.0"
    },
    "scene" : 0,
    "scenes" : [
        {
            "name" : "Scene",
            "nodes" : [
                0,
                1,
                2
            ]
        }
    ],
    "nodes" : [
        {
            "mesh" : 0,
            "name" : "Cube",
            "scale" : [
                1.590000033378601,
                1.2699999809265137,
                2.25
            ]
        },
        {
            "name" : "Sun",
            "translation" : [
                0.03995108604431152,
                2.6240768432617188,
                -0.21272504329681396
            ]
        },
        {
            "name" : "Camera.001",
            "rotation" : [
                0.07354629039764404,
                0.7781814336776733,
                -0.6167774796485901,
                0.09279075264930725
            ],
            "translation" : [
                1.0299477577209473,
                3.217474937438965,
                -14.617069244384766
            ]
        }
    ],
    "materials" : [
        {
            "doubleSided" : true,
            "name" : "Material.002",
            "pbrMetallicRoughness" : {
                "baseColorFactor" : [
                    0.12416809052228928,
                    0.13508185744285583,
                    0.14731433987617493,
                    1
                ],
                "metallicFactor" : 0,
                "roughnessFactor" : 0.5
            }
        },
        {
            "doubleSided" : true,
            "name" : "Material",
            "pbrMetallicRoughness" : {
                "baseColorFactor" : [
                    0.0054750037379562855,
                    0,
                    0.8000000715255737,
                    1
                ],
                "metallicFactor" : 0,
                "roughnessFactor" : 0.5
            }
        }
    ],
    "meshes" : [
        {
            "name" : "Cube",
            "primitives" : [
                {
                    "attributes" : {
                        "POSITION" : 0,
                        "NORMAL" : 1,
                        "TEXCOORD_0" : 2,
                        "COLOR_0" : 3
                    },
                    "indices" : 4,
                    "material" : 0
                },
                {
                    "attributes" : {
                        "POSITION" : 5,
                        "NORMAL" : 6,
                        "TEXCOORD_0" : 7,
                        "COLOR_0" : 8
                    },
                    "indices" : 9,
                    "material" : 1
                }
            ]
        }
    ],
    "accessors" : [
        {
            "bufferView" : 0,
            "componentType" : 5126,
            "count" : 1165,
            "max" : [
                1,
                1.0257353782653809,
                1.0151041746139526
            ],
            "min" : [
                -1,
                -1.0234696865081787,
                -1.0151041746139526
            ],
            "type" : "VEC3"
        },
        {
            "bufferView" : 1,
            "componentType" : 5126,
            "count" : 1165,
            "type" : "VEC3"
        },
        {
            "bufferView" : 2,
            "componentType" : 5126,
            "count" : 1165,
            "type" : "VEC2"
        },
        {
            "bufferView" : 3,
            "componentType" : 5126,
            "count" : 1165,
            "type" : "VEC4"
        },
        {
            "bufferView" : 4,
            "componentType" : 5123,
            "count" : 2445,
            "type" : "SCALAR"
        },
        {
            "bufferView" : 5,
            "componentType" : 5126,
            "count" : 8,
            "max" : [
                1,
                -0.9993710517883301,
                0.004444444552063942
            ],
            "min" : [
                -1,
                -1,
                -0.014424645341932774
            ],
            "type" : "VEC3"
        },
        {
            "bufferView" : 6,
            "componentType" : 5126,
            "count" : 8,
            "type" : "VEC3"
        },
        {
            "bufferView" : 7,
            "componentType" : 5126,
            "count" : 8,
            "type" : "VEC2"
        },
        {
            "bufferView" : 8,
            "componentType" : 5126,
            "count" : 8,
            "type" : "VEC4"
        },
        {
            "bufferView" : 9,
            "componentType" : 5123,
            "count" : 12,
            "type" : "SCALAR"
        }
    ],
    "bufferViews" : [
        {
            "buffer" : 0,
            "byteLength" : 13980,
            "byteOffset" : 0
        },
        {
            "buffer" : 0,
            "byteLength" : 13980,
            "byteOffset" : 13980
        },
        {
            "buffer" : 0,
            "byteLength" : 9320,
            "byteOffset" : 27960
        },
        {
            "buffer" : 0,
            "byteLength" : 18640,
            "byteOffset" : 37280
        },
        {
            "buffer" : 0,
            "byteLength" : 4890,
            "byteOffset" : 55920
        },
        {
            "buffer" : 0,
            "byteLength" : 96,
            "byteOffset" : 60812
        },
        {
            "buffer" : 0,
            "byteLength" : 96,
            "byteOffset" : 60908
        },
        {
            "buffer" : 0,
            "byteLength" : 64,
            "byteOffset" : 61004
        },
        {
            "buffer" : 0,
            "byteLength" : 128,
            "byteOffset" : 61068
        },
        {
            "buffer" : 0,
            "byteLength" : 24,
            "byteOffset" : 61196
        }
    ],
    "buffers" : [
        {
            "byteLength" : 61220,
            "uri" : "data:application/octet-stream;base64,"
        }
    ]
}
